<svg xmlns="http://www.w3.org/2000/svg" version="1.1" xmlns:xlink="http://www.w3.org/1999/xlink" xmlns:svgjs="http://svgjs.dev/svgjs" viewBox="0 0 1422 800" opacity="0.81"><defs><linearGradient x1="50%" y1="0%" x2="50%" y2="100%" id="oooscillate-grad"><stop stop-color="hsl(206, 75%, 49%)" stop-opacity="1" offset="0%"></stop><stop stop-color="hsl(331, 90%, 56%)" stop-opacity="1" offset="100%"></stop></linearGradient></defs><g stroke-width="2.5" stroke="url(#oooscillate-grad)" fill="none" stroke-linecap="round"><path d="M 0 777 Q 355.5 180 711 400 Q 1066.5 620 1422 777" opacity="0.93"></path><path d="M 0 770 Q 355.5 180 711 400 Q 1066.5 620 1422 770" opacity="0.99"></path><path d="M 0 763 Q 355.5 180 711 400 Q 1066.5 620 1422 763" opacity="0.33"></path><path d="M 0 756 Q 355.5 180 711 400 Q 1066.5 620 1422 756" opacity="0.31"></path><path d="M 0 749 Q 355.5 180 711 400 Q 1066.5 620 1422 749" opacity="0.71"></path><path d="M 0 742 Q 355.5 180 711 400 Q 1066.5 620 1422 742" opacity="0.64"></path><path d="M 0 735 Q 355.5 180 711 400 Q 1066.5 620 1422 735" opacity="0.68"></path><path d="M 0 728 Q 355.5 180 711 400 Q 1066.5 620 1422 728" opacity="0.89"></path><path d="M 0 721 Q 355.5 180 711 400 Q 1066.5 620 1422 721" opacity="0.72"></path><path d="M 0 714 Q 355.5 180 711 400 Q 1066.5 620 1422 714" opacity="0.18"></path><path d="M 0 707 Q 355.5 180 711 400 Q 1066.5 620 1422 707" opacity="0.72"></path><path d="M 0 700 Q 355.5 180 711 400 Q 1066.5 620 1422 700" opacity="0.31"></path><path d="M 0 693 Q 355.5 180 711 400 Q 1066.5 620 1422 693" opacity="0.55"></path><path d="M 0 686 Q 355.5 180 711 400 Q 1066.5 620 1422 686" opacity="0.99"></path><path d="M 0 679 Q 355.5 180 711 400 Q 1066.5 620 1422 679" opacity="0.70"></path><path d="M 0 672 Q 355.5 180 711 400 Q 1066.5 620 1422 672" opacity="0.65"></path><path d="M 0 665 Q 355.5 180 711 400 Q 1066.5 620 1422 665" opacity="0.67"></path><path d="M 0 658 Q 355.5 180 711 400 Q 1066.5 620 1422 658" opacity="0.43"></path><path d="M 0 651 Q 355.5 180 711 400 Q 1066.5 620 1422 651" opacity="0.60"></path><path d="M 0 644 Q 355.5 180 711 400 Q 1066.5 620 1422 644" opacity="0.76"></path><path d="M 0 637 Q 355.5 180 711 400 Q 1066.5 620 1422 637" opacity="0.55"></path><path d="M 0 630 Q 355.5 180 711 400 Q 1066.5 620 1422 630" opacity="0.41"></path><path d="M 0 623 Q 355.5 180 711 400 Q 1066.5 620 1422 623" opacity="0.88"></path><path d="M 0 616 Q 355.5 180 711 400 Q 1066.5 620 1422 616" opacity="0.46"></path><path d="M 0 609 Q 355.5 180 711 400 Q 1066.5 620 1422 609" opacity="0.33"></path><path d="M 0 602 Q 355.5 180 711 400 Q 1066.5 620 1422 602" opacity="0.23"></path><path d="M 0 595 Q 355.5 180 711 400 Q 1066.5 620 1422 595" opacity="0.56"></path><path d="M 0 588 Q 355.5 180 711 400 Q 1066.5 620 1422 588" opacity="0.57"></path><path d="M 0 581 Q 355.5 180 711 400 Q 1066.5 620 1422 581" opacity="0.90"></path><path d="M 0 574 Q 355.5 180 711 400 Q 1066.5 620 1422 574" opacity="0.46"></path><path d="M 0 567 Q 355.5 180 711 400 Q 1066.5 620 1422 567" opacity="0.73"></path><path d="M 0 560 Q 355.5 180 711 400 Q 1066.5 620 1422 560" opacity="0.64"></path><path d="M 0 553 Q 355.5 180 711 400 Q 1066.5 620 1422 553" opacity="0.43"></path><path d="M 0 546 Q 355.5 180 711 400 Q 1066.5 620 1422 546" opacity="0.50"></path><path d="M 0 539 Q 355.5 180 711 400 Q 1066.5 620 1422 539" opacity="0.22"></path><path d="M 0 532 Q 355.5 180 711 400 Q 1066.5 620 1422 532" opacity="0.32"></path><path d="M 0 525 Q 355.5 180 711 400 Q 1066.5 620 1422 525" opacity="0.07"></path><path d="M 0 518 Q 355.5 180 711 400 Q 1066.5 620 1422 518" opacity="0.57"></path><path d="M 0 511 Q 355.5 180 711 400 Q 1066.5 620 1422 511" opacity="0.52"></path><path d="M 0 504 Q 355.5 180 711 400 Q 1066.5 620 1422 504" opacity="0.40"></path><path d="M 0 497 Q 355.5 180 711 400 Q 1066.5 620 1422 497" opacity="0.21"></path><path d="M 0 490 Q 355.5 180 711 400 Q 1066.5 620 1422 490" opacity="0.77"></path><path d="M 0 483 Q 355.5 180 711 400 Q 1066.5 620 1422 483" opacity="0.88"></path><path d="M 0 476 Q 355.5 180 711 400 Q 1066.5 620 1422 476" opacity="0.42"></path><path d="M 0 469 Q 355.5 180 711 400 Q 1066.5 620 1422 469" opacity="0.53"></path><path d="M 0 462 Q 355.5 180 711 400 Q 1066.5 620 1422 462" opacity="0.45"></path><path d="M 0 455 Q 355.5 180 711 400 Q 1066.5 620 1422 455" opacity="0.52"></path><path d="M 0 448 Q 355.5 180 711 400 Q 1066.5 620 1422 448" opacity="0.13"></path><path d="M 0 441 Q 355.5 180 711 400 Q 1066.5 620 1422 441" opacity="0.64"></path><path d="M 0 434 Q 355.5 180 711 400 Q 1066.5 620 1422 434" opacity="0.10"></path><path d="M 0 427 Q 355.5 180 711 400 Q 1066.5 620 1422 427" opacity="0.41"></path><path d="M 0 420 Q 355.5 180 711 400 Q 1066.5 620 1422 420" opacity="0.69"></path><path d="M 0 413 Q 355.5 180 711 400 Q 1066.5 620 1422 413" opacity="0.67"></path><path d="M 0 406 Q 355.5 180 711 400 Q 1066.5 620 1422 406" opacity="0.75"></path><path d="M 0 399 Q 355.5 180 711 400 Q 1066.5 620 1422 399" opacity="0.33"></path><path d="M 0 392 Q 355.5 180 711 400 Q 1066.5 620 1422 392" opacity="0.60"></path><path d="M 0 385 Q 355.5 180 711 400 Q 1066.5 620 1422 385" opacity="0.96"></path><path d="M 0 378 Q 355.5 180 711 400 Q 1066.5 620 1422 378" opacity="0.74"></path><path d="M 0 371 Q 355.5 180 711 400 Q 1066.5 620 1422 371" opacity="0.54"></path><path d="M 0 364 Q 355.5 180 711 400 Q 1066.5 620 1422 364" opacity="0.09"></path><path d="M 0 357 Q 355.5 180 711 400 Q 1066.5 620 1422 357" opacity="0.37"></path><path d="M 0 350 Q 355.5 180 711 400 Q 1066.5 620 1422 350" opacity="0.85"></path><path d="M 0 343 Q 355.5 180 711 400 Q 1066.5 620 1422 343" opacity="0.86"></path><path d="M 0 336 Q 355.5 180 711 400 Q 1066.5 620 1422 336" opacity="0.97"></path><path d="M 0 329 Q 355.5 180 711 400 Q 1066.5 620 1422 329" opacity="0.10"></path><path d="M 0 322 Q 355.5 180 711 400 Q 1066.5 620 1422 322" opacity="0.92"></path><path d="M 0 315 Q 355.5 180 711 400 Q 1066.5 620 1422 315" opacity="0.62"></path><path d="M 0 308 Q 355.5 180 711 400 Q 1066.5 620 1422 308" opacity="0.43"></path><path d="M 0 301 Q 355.5 180 711 400 Q 1066.5 620 1422 301" opacity="0.22"></path><path d="M 0 294 Q 355.5 180 711 400 Q 1066.5 620 1422 294" opacity="0.38"></path><path d="M 0 287 Q 355.5 180 711 400 Q 1066.5 620 1422 287" opacity="0.16"></path><path d="M 0 280 Q 355.5 180 711 400 Q 1066.5 620 1422 280" opacity="0.36"></path><path d="M 0 273 Q 355.5 180 711 400 Q 1066.5 620 1422 273" opacity="0.71"></path><path d="M 0 266 Q 355.5 180 711 400 Q 1066.5 620 1422 266" opacity="0.91"></path><path d="M 0 259 Q 355.5 180 711 400 Q 1066.5 620 1422 259" opacity="0.58"></path><path d="M 0 252 Q 355.5 180 711 400 Q 1066.5 620 1422 252" opacity="0.10"></path><path d="M 0 245 Q 355.5 180 711 400 Q 1066.5 620 1422 245" opacity="0.51"></path><path d="M 0 238 Q 355.5 180 711 400 Q 1066.5 620 1422 238" opacity="0.47"></path><path d="M 0 231 Q 355.5 180 711 400 Q 1066.5 620 1422 231" opacity="0.84"></path><path d="M 0 224 Q 355.5 180 711 400 Q 1066.5 620 1422 224" opacity="0.72"></path><path d="M 0 217 Q 355.5 180 711 400 Q 1066.5 620 1422 217" opacity="0.10"></path><path d="M 0 210 Q 355.5 180 711 400 Q 1066.5 620 1422 210" opacity="0.86"></path><path d="M 0 203 Q 355.5 180 711 400 Q 1066.5 620 1422 203" opacity="0.43"></path><path d="M 0 196 Q 355.5 180 711 400 Q 1066.5 620 1422 196" opacity="0.74"></path><path d="M 0 189 Q 355.5 180 711 400 Q 1066.5 620 1422 189" opacity="0.38"></path><path d="M 0 182 Q 355.5 180 711 400 Q 1066.5 620 1422 182" opacity="0.68"></path><path d="M 0 175 Q 355.5 180 711 400 Q 1066.5 620 1422 175" opacity="0.99"></path><path d="M 0 168 Q 355.5 180 711 400 Q 1066.5 620 1422 168" opacity="0.46"></path><path d="M 0 161 Q 355.5 180 711 400 Q 1066.5 620 1422 161" opacity="0.59"></path><path d="M 0 154 Q 355.5 180 711 400 Q 1066.5 620 1422 154" opacity="0.50"></path><path d="M 0 147 Q 355.5 180 711 400 Q 1066.5 620 1422 147" opacity="0.51"></path><path d="M 0 140 Q 355.5 180 711 400 Q 1066.5 620 1422 140" opacity="0.53"></path><path d="M 0 133 Q 355.5 180 711 400 Q 1066.5 620 1422 133" opacity="0.47"></path><path d="M 0 126 Q 355.5 180 711 400 Q 1066.5 620 1422 126" opacity="0.75"></path><path d="M 0 119 Q 355.5 180 711 400 Q 1066.5 620 1422 119" opacity="0.19"></path><path d="M 0 112 Q 355.5 180 711 400 Q 1066.5 620 1422 112" opacity="0.14"></path><path d="M 0 105 Q 355.5 180 711 400 Q 1066.5 620 1422 105" opacity="0.95"></path><path d="M 0 98 Q 355.5 180 711 400 Q 1066.5 620 1422 98" opacity="0.75"></path><path d="M 0 91 Q 355.5 180 711 400 Q 1066.5 620 1422 91" opacity="0.28"></path><path d="M 0 84 Q 355.5 180 711 400 Q 1066.5 620 1422 84" opacity="0.19"></path><path d="M 0 77 Q 355.5 180 711 400 Q 1066.5 620 1422 77" opacity="0.73"></path><path d="M 0 70 Q 355.5 180 711 400 Q 1066.5 620 1422 70" opacity="0.18"></path><path d="M 0 63 Q 355.5 180 711 400 Q 1066.5 620 1422 63" opacity="0.84"></path><path d="M 0 56 Q 355.5 180 711 400 Q 1066.5 620 1422 56" opacity="0.10"></path><path d="M 0 49 Q 355.5 180 711 400 Q 1066.5 620 1422 49" opacity="0.54"></path><path d="M 0 42 Q 355.5 180 711 400 Q 1066.5 620 1422 42" opacity="0.77"></path><path d="M 0 35 Q 355.5 180 711 400 Q 1066.5 620 1422 35" opacity="0.52"></path><path d="M 0 28 Q 355.5 180 711 400 Q 1066.5 620 1422 28" opacity="0.56"></path><path d="M 0 21 Q 355.5 180 711 400 Q 1066.5 620 1422 21" opacity="0.63"></path><path d="M 0 14 Q 355.5 180 711 400 Q 1066.5 620 1422 14" opacity="0.09"></path></g></svg>